# xmcd
#
# Track frame offsets:
#	150
#	53230
#	64288
#	97288
#	148716
#	190170
#	201942
#
# Disc length: 3098 seconds
#
# Revision: 1
# Processed by: cddbd v1.5.2PL0 Copyright (c) Steve Scherf et al.
# Submitted via: audiograbber 1.83.01
#
DISCID=6f0c1807
DTITLE=Grateful Dead - 95-05-21A Sam Boyd Silver Bowl, Las Vegas NV
DYEAR=1900
DGENRE=
TTITLE0=Space
TTITLE1=Spanish Jam
TTITLE2=The Other One
TTITLE3=Days Between
TTITLE4=Sugar Magnolia
TTITLE5=Crowd
TTITLE6=Liberty
EXTD=
EXTT0=
EXTT1=
EXTT2=
EXTT3=
EXTT4=
EXTT5=
EXTT6=
PLAYORDER=
